<svg xmlns="http://www.w3.org/2000/svg" width="48" height="48" viewBox="0 0 48 48">
  <defs>
    <radialGradient id="cyan_glow" cx="75%" cy="45%" r="55%">
      <stop offset="0%" stop-color="#00CFFF" stop-opacity="0.5"/>
      <stop offset="100%" stop-color="#080C2E" stop-opacity="0"/>
    </radialGradient>
  </defs>
  <rect width="48" height="48" rx="5" fill="#080C2E"/>
  <rect x="2" y="5" width="44" height="38" rx="3" fill="#0D1140"/>
  <rect x="2" y="5" width="44" height="38" rx="3" fill="url(#cyan_glow)"/>
  <rect x="5" y="12" width="16" height="1.5" rx="0.5" fill="#E8A020" fill-opacity="0.8"/>
  <rect x="5" y="16" width="12" height="1.5" rx="0.5" fill="#E8A020" fill-opacity="0.6"/>
  <rect x="5" y="20" width="18" height="1.5" rx="0.5" fill="#E8A020" fill-opacity="0.7"/>
  <rect x="5" y="24" width="10" height="1.5" rx="0.5" fill="#E8A020" fill-opacity="0.5"/>
  <rect x="5" y="28" width="15" height="1.5" rx="0.5" fill="#E8A020" fill-opacity="0.6"/>
  <rect x="5" y="32" width="13" height="1.5" rx="0.5" fill="#E8A020" fill-opacity="0.5"/>
  <rect x="5" y="36" width="17" height="1.5" rx="0.5" fill="#E8A020" fill-opacity="0.4"/>
  <rect x="26" y="11" width="17" height="5" rx="1.5" fill="#00E8FF"/>
  <rect x="31" y="15" width="7" height="18" rx="1.5" fill="#00E8FF"/>
</svg>
